<?xml version="1.0" standalone="no"?><!DOCTYPE svg PUBLIC "-//W3C//DTD SVG 1.1//EN" "http://www.w3.org/Graphics/SVG/1.1/DTD/svg11.dtd"><svg t="1715417980679" class="icon" viewBox="0 0 1024 1024" version="1.1" xmlns="http://www.w3.org/2000/svg" p-id="8621" xmlns:xlink="http://www.w3.org/1999/xlink" width="200" height="200"><path d="M742.208 455.968c-9.728 5.44-9.728 237.728-12.96 268.16-3.232 30.4-453.856 23.776-453.856 0 0-23.808 9.728-262.72 0-268.16-25.92-10.88-45.376-35.232-45.376-59.648 0-8.128 0-16.256 3.2-21.664v-2.72l58.368-113.856c0-2.688 3.264-10.848 22.72-10.848h388.992c6.496 0 19.456 2.72 25.952 13.568l55.104 113.856v2.688c3.264 8.128 3.264 13.568 3.264 21.696 0 21.696-16.224 43.36-45.408 56.928z" fill="#F6D647" p-id="8622"></path><path d="M894.528 369.088h-1.6l0.128-7.296-66.944-165.376c-10.976-33.024-44.192-54.048-81.152-54.048H276.576c-39.424 0-69.76 19.904-81.216 54.144l-70.72 168.64-0.032 4.32c-5.888 23.488-7.84 33.92-7.84 46.848 0 57.984 30.72 108.864 81.92 136.416 17.696 10.624 43.104 15.52 73.952 15.52 47.168 0 89.824-19.776 119.328-54.496 27.008 34.72 69.664 54.496 116.832 54.496 47.168 0 89.824-19.776 119.328-54.496 27.008 34.72 69.664 54.496 116.832 54.496 26.432 0 53.856-7.392 74.048-19.52 51.072-27.488 81.824-78.368 81.824-136.352 0-10.976-3.616-30.304-7.808-42.784l-0.064-0.512h1.568z m-149.568 147.2c-37.44 0-68.608-17.184-84.224-48.8 0-2.656-1.856-5.12-7.424-10.688-7.584-7.616-14.336-11.36-26.432-11.36-10.88 0-18.464 3.36-26.432 11.36-5.568 5.536-7.424 8-7.712 11.616-20.704 28.992-52.96 47.872-83.936 47.872a97.152 97.152 0 0 1-84.224-48.8c0-2.656-1.856-5.12-7.552-10.88-11.2-14.88-41.408-14.88-52.992 0.384l0.256-0.192c-5.568 5.536-7.424 8-7.712 11.616-20.704 28.992-52.96 47.872-83.936 47.872-19.968 0-36-4-47.936-11.968-32.576-16.288-56-52.544-56-88 0-17.984 0.704-25.312 3.968-31.488l0.128-4.544 70.72-164.704c3.424-9.92 9.472-19.456 29.12-19.456h472.32c12.352 0 26.048 8.96 32.96 22.816l67.008 165.888-0.064 3.424c3.424 10.336 4 16.096 4 32 0 32.8-20.736 64.48-55.84 84-12.096 8.032-28.128 12.032-48.064 12.032z m44.864 104.704v153.504c0 8.736-8.576 17.312-17.312 17.312H237.216c-8.736 0-17.312-8.576-17.312-17.312v-153.504a25.344 25.344 0 0 0-25.984-25.984 25.344 25.344 0 0 0-25.984 25.984v153.504c0 38.496 30.784 69.28 69.28 69.28h535.296a68.992 68.992 0 0 0 69.28-69.28v-153.504a25.344 25.344 0 0 0-25.984-25.984 25.344 25.344 0 0 0-25.984 25.984z m-157.696-235.36c15.424 0 29.568-15.424 25.984-29.92a25.344 25.344 0 0 0-25.984-25.984h-258.464c-15.36 0-25.984 11.648-25.984 29.92 0 14.88 11.104 25.984 25.984 25.984h258.464z" fill="#391B01" p-id="8623"></path></svg>