<?xml version="1.0" standalone="no"?><!DOCTYPE svg PUBLIC "-//W3C//DTD SVG 1.1//EN" "http://www.w3.org/Graphics/SVG/1.1/DTD/svg11.dtd"><svg t="1716447994435" class="icon" viewBox="0 0 1024 1024" version="1.1" xmlns="http://www.w3.org/2000/svg" p-id="6253" xmlns:xlink="http://www.w3.org/1999/xlink" width="200" height="200"><path d="M512 512m-512 0a512 512 0 1 0 1024 0 512 512 0 1 0-1024 0Z" fill="#DBEBFF" p-id="6254"></path><path d="M638.6432 581.9904a24.9088 24.9088 0 0 1-19.6096-40.2688l102.784-131.2a69.7344 69.7344 0 0 0-11.904-97.792l-11.776-9.2416a69.7344 69.7344 0 0 0-97.792 11.904l-102.784 131.2a70.1952 70.1952 0 0 0 0.9728 87.04 24.9088 24.9088 0 0 1-38.5792 31.5136 119.8336 119.8336 0 0 1-1.6384-149.2992l102.784-131.2a119.6032 119.6032 0 0 1 167.7824-20.48l11.776 9.2416a119.6288 119.6288 0 0 1 20.48 167.7056l-102.784 131.2a24.832 24.832 0 0 1-19.712 9.6768z" fill="#0072FF" p-id="6255"></path><path d="M380.8256 774.6048a118.8352 118.8352 0 0 1-73.5488-25.3952l-11.776-9.2416a119.7312 119.7312 0 0 1-20.48-167.7056l102.784-131.2a24.9344 24.9344 0 1 1 39.2448 30.72l-102.784 131.2a69.9392 69.9392 0 0 0 11.8528 97.792l11.776 9.2416a69.7856 69.7856 0 0 0 97.792-11.904l102.784-131.2a70.3488 70.3488 0 0 0-3.584-90.1376 24.8832 24.8832 0 1 1 36.6336-33.7152 119.7312 119.7312 0 0 1 6.144 154.5216l-102.656 131.2768a119.4752 119.4752 0 0 1-94.1824 45.7472z" fill="#0072FF" p-id="6256"></path></svg>