<?xml version="1.0" standalone="no"?><!DOCTYPE svg PUBLIC "-//W3C//DTD SVG 1.1//EN" "http://www.w3.org/Graphics/SVG/1.1/DTD/svg11.dtd"><svg t="1716447934227" class="icon" viewBox="0 0 1024 1024" version="1.1" xmlns="http://www.w3.org/2000/svg" p-id="1934" xmlns:xlink="http://www.w3.org/1999/xlink" width="200" height="200"><path d="M453.99 512l-87.02 87.02c-15.94 16.1-15.81 42.07 0.29 58.01 15.99 15.83 41.74 15.83 57.73 0L512 570.01l29.01 29.01c32.04 32.04 32.04 83.99 0 116.03L424.98 831.07c-32.04 32.04-83.99 32.04-116.03 0L192.93 715.05c-32.04-32.04-32.04-83.99 0-116.03l116.03-116.03c32.04-32.04 83.99-32.04 116.03 0l29 29.01z" fill="#2E3133" opacity=".3" p-id="1935"></path><path d="M570.01 512l87.02-87.02c16.1-15.94 16.23-41.91 0.29-58.01s-41.91-16.23-58.01-0.29l-0.29 0.29L512 453.99l-29.01-29.01c-32.04-32.04-32.04-83.99 0-116.03l116.03-116.03c32.04-32.04 83.99-32.04 116.03 0l116.03 116.03c32.04 32.04 32.04 83.99 0 116.03L715.05 541.01c-32.04 32.04-83.99 32.04-116.03 0L570.01 512z" fill="#2E3133" p-id="1936"></path></svg>