<?xml version="1.0" standalone="no"?><!DOCTYPE svg PUBLIC "-//W3C//DTD SVG 1.1//EN" "http://www.w3.org/Graphics/SVG/1.1/DTD/svg11.dtd"><svg t="1716447944069" class="icon" viewBox="0 0 1024 1024" version="1.1" xmlns="http://www.w3.org/2000/svg" p-id="2101" xmlns:xlink="http://www.w3.org/1999/xlink" width="200" height="200"><path d="M425.984 546.816l-86.016 86.016c-16.384 16.384-16.384 40.96 0 57.344s40.96 16.384 57.344 0l86.016-86.016 28.672 28.672c32.768 32.768 32.768 83.968 0 116.736l-116.736 116.736c-32.768 32.768-83.968 32.768-116.736 0l-116.736-116.736c-32.768-32.768-32.768-83.968 0-116.736l116.736-116.736c32.768-32.768 83.968-32.768 116.736 0l30.72 30.72z" opacity=".3" p-id="2102"></path><path d="M598.016 489.472l86.016-86.016c16.384-16.384 16.384-40.96 0-57.344-16.384-16.384-40.96-16.384-57.344 0l-86.016 86.016-28.672-28.672c-32.768-32.768-32.768-83.968 0-116.736l116.736-116.736c32.768-32.768 83.968-32.768 116.736 0l116.736 116.736c32.768 32.768 32.768 83.968 0 116.736l-116.736 116.736c-32.768 32.768-83.968 32.768-116.736 0l-30.72-30.72z" p-id="2103"></path><path d="M192.512 200.704c16.384-16.384 40.96-16.384 57.344 0l57.344 57.344c16.384 16.384 16.384 40.96 0 57.344-16.384 16.384-40.96 16.384-57.344 0l-57.344-57.344c-14.336-16.384-14.336-43.008 0-57.344z m210.944-112.64c22.528 0 40.96 18.432 40.96 40.96v81.92c0 22.528-18.432 40.96-40.96 40.96s-40.96-18.432-40.96-40.96v-81.92c0-22.528 18.432-40.96 40.96-40.96zM90.112 403.456c0-22.528 18.432-40.96 40.96-40.96h81.92c22.528 0 40.96 18.432 40.96 40.96s-18.432 40.96-40.96 40.96h-81.92c-22.528 0-40.96-18.432-40.96-40.96zM825.344 831.488c16.384-16.384 16.384-40.96 0-57.344L768 716.8c-16.384-16.384-40.96-16.384-57.344 0-16.384 16.384-16.384 40.96 0 57.344l57.344 57.344c16.384 16.384 40.96 16.384 57.344 0z m110.592-208.896c0-22.528-18.432-40.96-40.96-40.96h-81.92c-22.528 0-40.96 18.432-40.96 40.96s18.432 40.96 40.96 40.96h81.92c22.528 0 40.96-18.432 40.96-40.96zM622.592 935.936c22.528 0 40.96-18.432 40.96-40.96v-81.92c0-22.528-18.432-40.96-40.96-40.96s-40.96 18.432-40.96 40.96v81.92c0 22.528 18.432 40.96 40.96 40.96z" opacity=".3" p-id="2104"></path></svg>