<?xml version="1.0" standalone="no"?><!DOCTYPE svg PUBLIC "-//W3C//DTD SVG 1.1//EN" "http://www.w3.org/Graphics/SVG/1.1/DTD/svg11.dtd"><svg t="1715915918228" class="icon" viewBox="0 0 1025 1024" version="1.1" xmlns="http://www.w3.org/2000/svg" p-id="11727" xmlns:xlink="http://www.w3.org/1999/xlink" width="200.1953125" height="200"><path d="M877.196507 895.967787c-73.441179 50.080168-168.126278 82.93159-283.252262 99.649314-148.196416 21.535932-321.797931 30.296312-521.242565 26.427144a73.00316 73.00316 0 1 1 2.920126-146.00632c191.852305 3.723161 357.715486-4.599199 497.297529-24.894078 68.622971-10.001433 126.222464-26.135131 173.01749-48.109083H731.190187a73.00316 73.00316 0 0 1 0-146.006321h219.009481a73.00316 73.00316 0 0 1 73.00316 73.003161v219.009481a73.00316 73.00316 0 0 1-146.006321 0v-53.073298zM136.798455 986.564709a73.00316 73.00316 0 1 1-125.20042-75.047248l218.863475-365.015802a73.00316 73.00316 0 0 1 125.273423 75.047248l-219.009481 365.015802z" fill="#394648" p-id="11728"></path><path d="M475.679125 328.514222m-328.514221 0a328.514222 328.514222 0 1 0 657.028443 0 328.514222 328.514222 0 1 0-657.028443 0Z" fill="#57BFB5" p-id="11729"></path></svg>