<?xml version="1.0" standalone="no"?><!DOCTYPE svg PUBLIC "-//W3C//DTD SVG 1.1//EN" "http://www.w3.org/Graphics/SVG/1.1/DTD/svg11.dtd"><svg t="1721185488897" class="icon" viewBox="0 0 1024 1024" version="1.1" xmlns="http://www.w3.org/2000/svg" p-id="25901" xmlns:xlink="http://www.w3.org/1999/xlink" width="64" height="64"><path d="M0 0h1024v1024H0z" fill="#FFFFFF" fill-opacity="0" p-id="25902"></path><path d="M490.666667 234.666667c-12.8 0-25.6-12.8-25.6-25.6v-170.666667c0-12.8 12.8-25.6 25.6-25.6s25.6 12.8 25.6 25.6v170.666667c0 12.8-8.533333 25.6-25.6 25.6z" fill="#333333" p-id="25903"></path><path d="M418.133333 418.133333l537.6 106.666667-162.133333 106.666667 162.133333 162.133333-162.133333 162.133333-162.133333-162.133333-106.666667 162.133333L418.133333 418.133333z" fill="#4EB49B" p-id="25904"></path><path d="M691.2 320c-8.533333 0-12.8-4.266667-17.066667-8.533333-8.533333-8.533333-8.533333-25.6 0-34.133334l119.466667-119.466666c8.533333-8.533333 25.6-8.533333 34.133333 0s8.533333 25.6 0 34.133333l-119.466666 119.466667c-4.266667 4.266667-8.533333 8.533333-17.066667 8.533333zM170.666667 840.533333c-8.533333 0-12.8-4.266667-17.066667-8.533333-8.533333-8.533333-8.533333-25.6 0-34.133333l119.466667-119.466667c8.533333-8.533333 25.6-8.533333 34.133333 0 8.533333 8.533333 8.533333 25.6 0 34.133333l-119.466667 119.466667c0 4.266667-8.533333 8.533333-17.066666 8.533333zM209.066667 516.266667h-170.666667c-12.8 0-25.6-12.8-25.6-25.6s12.8-25.6 25.6-25.6h170.666667c12.8 0 25.6 12.8 25.6 25.6s-12.8 25.6-25.6 25.6zM294.4 320c-8.533333 0-12.8-4.266667-17.066667-8.533333L153.6 192c-8.533333-8.533333-8.533333-25.6 0-34.133333s25.6-8.533333 34.133333 0l119.466667 119.466666c8.533333 8.533333 8.533333 25.6 0 34.133334 0 4.266667-8.533333 8.533333-12.8 8.533333z" fill="#333333" p-id="25905"></path></svg>