<?xml version="1.0" standalone="no"?><!DOCTYPE svg PUBLIC "-//W3C//DTD SVG 1.1//EN" "http://www.w3.org/Graphics/SVG/1.1/DTD/svg11.dtd"><svg t="1720713194412" class="icon" viewBox="0 0 1024 1024" version="1.1" xmlns="http://www.w3.org/2000/svg" p-id="18683" xmlns:xlink="http://www.w3.org/1999/xlink" width="128" height="128"><path d="M703.240533 769.092267l-0.093866 5.7344c0 33.1648 7.5008 64.558933 20.932266 92.612266l-186.4832 107.652267a51.2 51.2 0 0 1-51.195733 0l-186.478933-107.652267a214.186667 214.186667 0 0 0 20.834133-98.346666L512 879.479467l191.240533-110.3872z m127.018667-190.574934V328.260267L664.96 232.832a215.197867 215.197867 0 0 0 51.6096-80.571733l183.744 106.026666a51.2 51.2 0 0 1 25.608533 44.347734v257.297066a214.225067 214.225067 0 0 0-95.573333 18.6368l-0.093867-0.0512z m-636.5184 0a214.336 214.336 0 0 0-95.573333-18.6368V302.626133a51.2 51.2 0 0 1 25.6-44.3392l187.2896-108.125866a214.267733 214.267733 0 0 0 50.747733 81.045333l-168.064 97.006933v250.304zM512 225.28c-52.782933 0-95.573333-42.7904-95.573333-95.573333C416.426667 76.923733 459.217067 34.133333 512 34.133333c52.778667 0 95.573333 42.7904 95.573333 95.573334 0 52.782933-42.794667 95.573333-95.573333 95.573333zM177.015467 820.130133c-52.782933 0-95.573333-42.7904-95.573334-95.573333 0-52.7872 42.7904-95.573333 95.573334-95.573333 52.782933 0 95.573333 42.786133 95.573333 95.573333 0 52.782933-42.7904 95.573333-95.573333 95.573333z m669.013333 0c-52.782933 0-95.573333-42.7904-95.573333-95.573333 0-52.7872 42.7904-95.573333 95.573333-95.573333 52.778667 0 95.573333 42.786133 95.573333 95.573333 0 52.782933-42.794667 95.573333-95.573333 95.573333zM512.571733 268.288l206.916267 119.466667v238.933333l-206.916267 119.466667-206.916266-119.466667v-238.933333l206.916266-119.466667z" fill="#706DFC" p-id="18684"></path><path d="M379.733333 400.32L512 469.333333l132.266667-70.016L512 324.266667 379.733333 400.32z" fill="#C7C7FF" p-id="18685"></path><path d="M546.133333 670.865067l133.0688-79.726934v-141.448533L546.133333 522.478933v148.386134z" fill="#ACB3FF" p-id="18686"></path><path d="M345.6 449.9456v139.8528l141.602133 82.4064v-141.448533L345.6 449.9456z" fill="#706DFC" p-id="18687"></path></svg>