<?xml version="1.0" standalone="no"?><!DOCTYPE svg PUBLIC "-//W3C//DTD SVG 1.1//EN" "http://www.w3.org/Graphics/SVG/1.1/DTD/svg11.dtd"><svg t="1736757587107" class="icon" viewBox="0 0 1024 1024" version="1.1" xmlns="http://www.w3.org/2000/svg" p-id="36886" xmlns:xlink="http://www.w3.org/1999/xlink" width="200" height="200"><path d="M51.424537 672.016138a40.681054 40.681054 0 0 1-11.555287-3.321577c-17.211056-7.85776-24.007068-25.676119-15.438722-39.648225 17.669632-28.919201 34.992234-57.962342 51.963674-87.133554 6.263073-10.753812 19.640269-16.723561 33.554536-15.050378a3370.367663 3370.367663 0 0 0 115.321512 11.873398c18.293461 1.5699 32.187071 15.616369 31.005515 31.58803-1.177425 15.96753-17.281288 27.791352-35.95483 26.192534-31.265788-2.677092-62.506788-5.78384-93.710606-9.324377a4738.105421 4738.105421 0 0 1-40.367074 69.99273c-6.502689 11.084317-20.689623 16.702904-34.818718 14.831419zM971.712018 665.282095c-11.823822 1.565768-24.002937-2.057395-31.52606-10.394387a3578.110811 3578.110811 0 0 1-58.181302-65.981223 3398.886127 3398.886127 0 0 1-89.422302 8.539427c-18.677673 1.54098-34.736092-10.332418-35.863941-26.308211s12.802944-29.976818 31.104667-31.484748a3374.032139 3374.032139 0 0 0 106.86058-10.518326c11.732933-1.338546 23.230381 2.751455 30.282535 10.807518a3570.43896 3570.43896 0 0 0 70.323235 78.019874c11.452004 12.311317 8.605528 30.699798-6.696861 41.003297a39.392084 39.392084 0 0 1-16.880551 6.316779zM890.263153 888.195431c-20.164946 2.065657-37.74782-9.250013-39.317719-25.118392-2.813425-27.960736-5.614456-55.917341-8.419619-83.878078a3276.958642 3276.958642 0 0 1-100.754498-70.232346c-14.352186-10.431569-15.380884-28.762211-2.668829-40.92067 12.72858-12.158459 34.364274-13.724227 48.708198-3.524012a3224.019979 3224.019979 0 0 0 111.772713 76.177308c7.126517 4.647729 11.658569 11.476792 12.567459 19.049491 3.829729 31.835909 7.663588 63.667687 11.509842 95.503597 1.94998 15.897298-12.88557 30.73698-33.145536 32.914182l-0.252011 0.02892zM911.097372 448.425267c-8.270892 1.016303-16.884682-0.818-23.833553-5.717739a3003.845705 3003.845705 0 0 1-71.661781-52.128926 3061.651057 3061.651057 0 0 1-59.143898 63.213243c-11.78664 12.253479-32.430819 13.653994-45.750176 3.102617-13.331752-10.551377-14.277823-28.886151-2.491183-40.933064a2991.5096 2991.5096 0 0 0 79.573248-84.60932c5.366578-5.928436 12.98059-9.67967 21.210169-10.46462 8.229578-0.776687 16.413712 1.474879 22.800724 6.291992a2947.746586 2947.746586 0 0 0 95.788658 69.278012c13.868823 9.609437 16.397187 27.791352 5.267426 40.66866-5.569012 6.428325-13.492873 10.291104-21.759634 11.299145zM132.468533 879.544458a41.01569 41.01569 0 0 1-0.706455-0.078495c-20.193865-2.3879-34.752617-17.368046-32.542364-33.228162 4.383325-31.959849 8.741861-63.923829 13.083873-95.887809 1.008041-7.428103 5.507042-14.116702 12.501358-18.685936a3215.906077 3215.906077 0 0 0 100.089355-68.059274c14.376974-10.154771 36.0168-8.51877 48.695804 3.681001 12.674873 12.203903 11.588337 30.530414-2.805162 40.912407a3262.251163 3262.251163 0 0 1-89.277706 62.081263c-3.263738 28.171433-6.544002 56.346998-9.83666 84.5143-1.817778 15.723783-19.301501 26.799837-39.202043 24.750705zM98.203411 454.729653c-8.291548-1.049354-16.215409-4.945183-21.767896-11.402428-11.109105-12.926883-8.506377-31.104667 5.43681-40.643872a2951.68786 2951.68786 0 0 0 102.687952-73.615892c13.331752-9.981256 32.877001-8.080851 44.035681 4.280041a2991.402186 2991.402186 0 0 0 76.689591 81.961148c11.749458 12.079964 10.745549 30.414737-2.619254 40.92067-13.352408 10.505933-34.000718 9.043447-45.737782-3.251344A3040.577222 3040.577222 0 0 1 200.622828 392.503794a3006.832645 3006.832645 0 0 1-78.503238 56.611403c-6.981921 4.866688-15.628763 6.66381-23.916179 5.614456z" fill="#613535" p-id="36887"></path><path d="M507.149837 176.217088c-106.426792-0.004131-199.674691 79.019652-208.028209 184.417747-1.103061 15.971662 12.220428 29.902454 29.761989 30.902232 17.545693 1.003909 32.360586-11.31567 33.083566-27.307989a3178.893631 3178.893631 0 0 0 289.749741 0.47097c0.673404 15.99645 15.451116 28.361474 32.992678 27.415403 17.549824-0.946071 30.914626-14.827288 29.865272-30.803081-8.01475-105.431145-101.002376-184.756515-207.425037-185.095282z" fill="#E67E7E" p-id="36888"></path><path d="M506.935008 305.659433c-158.34089 0.140465-300.594441 108.405692-317.603063 258.942529-7.696639 78.722197 24.820937 157.126283 94.280728 213.923594 21.30932 102.74166 115.371088 178.282745 229.11857 178.138149 118.618301 0.107414 215.51002-82.775017 231.399055-190.932829 58.854706-55.206755 86.294897-128.29384 79.544329-200.104348-16.521127-150.586413-158.406991-259.314347-316.739619-259.967095z" fill="#FF8C8C" p-id="36889"></path><path d="M417.665565 256.942973c-7.775134-0.239616-15.455247-3.342233-21.15233-9.221094a2849.603079 2849.603079 0 0 1-73.012721-78.230571c-10.819913-12.046913-9.489629-30.356899 2.586203-40.924802a29.456272 29.456272 0 0 1 41.180943 2.317668 2816.854149 2816.854149 0 0 0 73.045771 77.16056c11.398297 11.584206 11.129761 29.939636-0.970859 40.995034-6.048244 5.515305-13.910136 8.142821-21.677007 7.903205zM594.750229 257.277609c7.779265-0.206566 15.467641-3.280264 21.181249-9.142599a2853.701343 2853.701343 0 0 0 73.310176-77.953773c10.861226-12.0056 9.605306-30.319717-2.433345-40.933064a29.456272 29.456272 0 0 0-41.189205 2.156547 2820.634302 2820.634302 0 0 1-73.334963 76.883762c-11.443741 11.538761-11.245438 29.898323 0.818 40.999165 6.031719 5.544224 13.881217 8.200659 21.648088 7.989962z" fill="#613535" p-id="36890"></path></svg>