<?xml version="1.0" standalone="no"?><!DOCTYPE svg PUBLIC "-//W3C//DTD SVG 1.1//EN" "http://www.w3.org/Graphics/SVG/1.1/DTD/svg11.dtd"><svg t="1721983450753" class="icon" viewBox="0 0 1024 1024" version="1.1" xmlns="http://www.w3.org/2000/svg" p-id="24084" xmlns:xlink="http://www.w3.org/1999/xlink" width="200" height="200"><path d="M532.662113 1024C323.183351 1024 142.06777 927.431501 80.933876 844.308391c0-147.240564 216.017406-365.195346 425.476795-365.195346S943.066124 697.067827 943.066124 844.308391q-198.648832 179.691609-410.404011 179.681922z" fill="#CCCCCC" p-id="24085"></path><path d="M507.669965 536.246259l-94.35989 94.553627-53.200341-123.158982-1.937376-5.715258q24.604673-9.686879 50.023045-17.126403a193.911948 193.911948 0 0 1-69.658349-54.56619l32.296055-32.373551 77.892196 78.696207 5.695885 5.705572 22.802914 22.841661 30.397427 31.094882z m100.055775-50.759247a357.348974 357.348974 0 0 1 50.042418 17.126402l-2.537962 5.066238-53.200341 123.120234-94.35989-94.553627 137.456816-137.708675 32.296055 32.354176a188.642285 188.642285 0 0 1-69.658348 54.595252z" fill="#7C696A" p-id="24086"></path><path d="M824.828077 929.688544c-69.842399 64.09808-180.679671 90.630442-311.394419 90.630442-126.220036 0-243.470022-30.998013-313.951755-90.630442a264.345246 264.345246 0 0 1 105.7226-151.028133 314.949503 314.949503 0 0 1 83.307161-43.794381 366.29965 366.29965 0 0 1 124.960742-21.57268 361.320594 361.320594 0 0 1 130.075414 23.480995 333.887352 333.887352 0 0 1 82.638766 45.053675 271.232618 271.232618 0 0 1 98.689925 140.885971v6.974553z" fill="#77644B" p-id="24087"></path><path d="M302.404995 534.357317l85.302658 236.698893 11.537073 33.632845-85.951679 30.455548-8.97005-25.38931-78.25061-218.92347 76.332608-56.484193z m498.990521 67.256002l-75.683587 210.689623-8.340403 22.212014-85.951679-29.816214 11.556447-31.734216 82.735635-230.993322a411.091779 411.091779 0 0 1 75.683587 59.651802z" fill="#77644B" p-id="24088"></path><path d="M516.591581 148.044575a1227.773191 1227.773191 0 0 1 242.956617 22.861035c0-2.586397 0.629647-4.746571 0.629647-7.323281C760.177845 73.37811 649.573058 0 512.765263 0S265.372056 73.37811 265.372056 163.582329a43.590956 43.590956 0 0 0 0.629647 9.057232 1187.61139 1187.61139 0 0 1 250.618938-24.594986z m383.600416 131.635001v2.586397c-5.114672 57.404446-175.177523 103.581799-383.600416 103.581799s-377.84641-46.177353-383.600416-103.581799v-3.874752c1.937376-32.37355 54.973039-61.288885 137.466502-80.284855q37.110434-8.359777 74.792394-13.813489a46.167666 46.167666 0 0 1 7.681696-0.871819c2.557336-0.43591 5.114672-0.43591 7.681695-0.852446l23.006338-2.596083c5.114672-0.43591 9.59001-0.852445 14.694996-1.288355 6.403027-0.43591 12.796367-1.288355 19.180021-1.724265 1.937376 0 3.874752-0.43591 5.754006-0.435909s4.485025-0.43591 6.403027-0.43591c3.19667 0 6.383653-0.426223 9.59001-0.426223h0.629647c5.754006-0.43591 12.147347-0.43591 18.550374-0.871819q29.060638-1.307729 58.16971-1.288355 45.082736 0 86.310093 2.586397l19.180021 1.307729c2.557336 0.426223 5.754006 0.426223 8.311343 0.852445 2.557336 0 4.475338 0.43591 7.032674 0.43591 2.557336 0.43591 5.114672 0.43591 7.681695 0.852445 12.786681 1.307729 24.92434 2.596084 36.44204 4.320348q37.042626 4.84344 73.523413 12.951358c86.949428 18.986283 143.201135 48.773437 145.128824 81.989745z" fill="#E3CE6F" p-id="24089"></path><path d="M878.658065 279.243667c-65.870779-43.155047-203.424463-72.506291-362.076171-72.506291s-296.176331 29.777467-362.056797 72.506291v-0.862133a23.907218 23.907218 0 0 1 14.075035-19.858102c69.74553-37.982253 199.549711-63.875281 347.991449-63.875281s278.274979 25.893028 348.630782 64.311191a21.504872 21.504872 0 0 1 13.435702 19.848415v0.43591z" fill="#CBAF3A" p-id="24090"></path><path d="M710.319478 240.515524v128.205846a145.574421 145.574421 0 0 1-32.935389 91.376331 199.375348 199.375348 0 0 1-69.658349 54.566191c-3.177296 1.278668-6.335219 3.186983-9.502828 4.455964a226.672973 226.672973 0 0 1-60.165207 15.867108 244.361215 244.361215 0 0 1-60.794854 0 233.570031 233.570031 0 0 1-60.165207-15.867108 63.933403 63.933403 0 0 1-9.502828-4.446277 193.921635 193.921635 0 0 1-69.668035-54.566191 145.584107 145.584107 0 0 1-32.935389-91.386018V239.246542q20.429628-5.957431 41.169236-10.791183a711.520651 711.520651 0 0 1 159.591335-17.145776 720.054791 720.054791 0 0 1 169.72381 19.674051q17.513878 4.397843 34.872765 9.522203z" fill="#F3C69C" p-id="24091"></path><path d="M761.272462 199.394721c10.917113-4.310661 16.70018-9.502828 16.70018-14.249399 0-5.61839-7.061735-10.355274-19.267203-15.101845v0.862133a1159.771299 1159.771299 0 0 0-243.382839-24.217198 1137.239618 1137.239618 0 0 0-247.877552 25.476492c-8.989424 3.874752-14.12347 8.631009-14.12347 13.37758 0 5.18248 5.812128 9.919364 16.70018 14.249399 4.494712-0.871819 8.35009-2.160174 12.854488-3.022306q14.975915-3.516337 30.174629-6.044612c3.206357-0.43591 7.061735-1.288355 10.287466-1.724265a575.516867 575.516867 0 0 1 29.525608-4.320348q46.400151-6.044613 93.119969-9.057232 34.969634-1.859881 69.997389-1.724265a1072.269719 1072.269719 0 0 1 238.888128 24.604674l6.412714 0.852445z" fill="#AD8D1E" p-id="24092"></path><path d="M509.258613 19.451253c-89.293652 6.034926-162.129297 46.593889-181.754914 100.123584v-0.43591c0-55.680182 72.835645-100.559493 162.129297-100.559493 6.325532 0 13.290398 0.43591 19.625617 0.871819z" fill="#CBAF3A" p-id="24093"></path><path d="M648.953098 858.606225v-1.259295a5.812128 5.812128 0 0 0-0.629647-3.177296 15.237461 15.237461 0 0 0-4.426904-7.6042 18.046656 18.046656 0 0 0-8.873181-5.085612H389.945322a17.581686 17.581686 0 0 0-13.939419 17.126403 10.733062 10.733062 0 0 0 0.639334 4.446277c0.629647 1.937376 1.268981 3.177296 1.937376 5.066238 27.229817 59.022155 76.632901 98.990219 133.678933 98.990218 56.348576 0 105.75166-39.32873 132.991164-98.350884a23.655359 23.655359 0 0 0 3.16761-6.974553v-0.639334c0.629647-0.629647 0.629647-1.268981 0.629647-2.537962z" fill="#BA8D51" p-id="24094"></path><path d="M649.495563 225.297436c-5.066238 5.066238-10.77181 9.512515-15.2084 13.319459-8.22416 7.6042-39.260921 23.480995-39.890569 21.57268-0.639334-3.806944 14.530319-21.57268 19.005657-29.186567a60.513934 60.513934 0 0 0 3.16761-6.335219 230.208684 230.208684 0 0 1-20.264951 22.212014 177.269889 177.269889 0 0 1-30.397427 23.471309c-5.066238 3.177296-12.031104 8.253221-17.736676 5.085611-0.629647-0.639334-1.268981-1.937376-0.629647-2.537962 0-0.639334 0.629647-0.639334 1.268981-0.639334a210.534632 210.534632 0 0 0 27.22013-35.54116c-6.964866 5.724946-13.290398 12.069851-20.255264 17.765736a105.926024 105.926024 0 0 1-57.007284 29.816215c-0.629647 0-1.259294 0.649021-1.937376 0.64902-3.167609 1.268981 6.964866-12.699499 10.77181-17.145776 4.426904-4.446278 9.502828-9.512515 13.929732-14.598127l2.537962-2.537962c-13.300085 5.705572-28.489112 13.329146-41.789196 12.060165-3.806944-0.639334 0-6.993927 0-6.993927a6.383653 6.383653 0 0 0 2.537962-3.157923c1.259294-4.446278 7.594513-8.882868 11.39177-12.699498a136.7303 136.7303 0 0 1-37.362293 18.40507c-6.964866 1.937376-19.644991 7.6042-26.609857 5.705572a164.938492 164.938492 0 0 1 15.2084-20.342446c3.167609-3.81663 6.955179-5.705572 9.493142-10.15185l1.268981-1.937376c-5.695885 3.806944-10.77181 7.6042-16.467695 12.060165-10.142163 6.974553-22.793227 10.781497-32.296055 17.775423a108.212128 108.212128 0 0 1-21.533933 16.467695c-3.167609 1.268981-6.325532 5.066238-8.863494 5.705572-0.639334 0-1.268981 0-1.268981 0.639334a35.918948 35.918948 0 0 1-5.066238 2.537962c-1.937376 0.639334-8.233847 3.81663-8.863494 3.177297a210.205279 210.205279 0 0 0 25.951149-31.094883c3.806944-6.335219 6.974553-13.329146 11.411144-19.674051l-3.177297 3.186983a261.807284 261.807284 0 0 1-37.362293 32.99351 94.82486 94.82486 0 0 0-34.872765 39.357791 58.35376 58.35376 0 0 0-5.066238 29.17688c0 3.81663 2.537962 26.018958 0 24.120329l-0.629647-0.639334a0.610273 0.610273 0 0 1-0.629647-0.629647l-0.639334-0.639334a148.616101 148.616101 0 0 1-12.680125-15.237461 60.678611 60.678611 0 0 1-9.493142-22.841661c-1.937376-10.791183-4.426904-20.342446-5.695885-31.094883a111.302242 111.302242 0 0 1-0.639334-14.598127c0-4.446278 1.937376-8.882868 1.937376-13.329145a93.410576 93.410576 0 0 1 5.066238-28.547233c2.537962-0.639334 5.695885-1.937376 8.224161-2.537963 0 0 26.609857-8.882868 40.539589-12.069851a681.094163 681.094163 0 0 1 142.484306-16.467695h15.2084a694.549238 694.549238 0 0 1 73.445919 3.806944c3.806944 0.639334 6.964866 0.639334 10.771809 1.278668 3.167609 0.629647 5.695885 0.629647 8.873182 1.268981 2.537962 0.629647 5.066238 0.629647 7.6042 1.268981a3.806944 3.806944 0 0 1 2.518588 0.629647 110.498231 110.498231 0 0 1 13.929733 2.537963c10.142163 1.278668 19.625617 3.186983 28.489111 5.085611z m73.455605 27.287939a5.744319 5.744319 0 0 1-0.629647 3.157923c0 1.278668-0.639334 3.177296-0.639334 4.446277-1.268981 6.344906-3.167609 12.699499-4.426904 19.674052a106.06164 106.06164 0 0 1-3.806943 13.329146c-0.629647 2.537962-3.806944 6.974553-4.426904 8.882868-0.639334 1.268981-2.537962-5.066238-2.537962-6.354593a55.379888 55.379888 0 0 1-3.157923 9.522202c-0.639334 1.937376-1.937376 4.446278-2.537962 6.335219a34.611219 34.611219 0 0 1-4.426904 8.253221c-3.177296 4.446278-7.6042 8.882868-10.77181 13.329146 0 0-0.639334 1.268981-1.268981 1.268981s-1.268981-1.268981-1.268981-1.268981a38.747517 38.747517 0 0 1-1.937376-17.145776c0 0.639334-0.639334 1.268981-0.639334 1.937376a232.165434 232.165434 0 0 1-8.233847 22.212014c-2.537962 5.705572-5.066238-0.639334-3.806944-4.446278 2.537962-6.974553 5.066238-14.607814 6.974553-21.57268 0.629647-3.177296 1.937376-5.724946 2.537963-8.882868a37.52697 37.52697 0 0 1-19.005657 12.689812 59.709923 59.709923 0 0 1 5.695885-12.060165 75.33486 75.33486 0 0 0 6.325532-20.342446l3.806943-22.841661a11.207719 11.207719 0 0 1-2.537962 3.177296c-1.268981 1.937376-8.863494 7.6042-9.502829 6.974553a21.175518 21.175518 0 0 1 0.639334-10.791183c1.268981-6.354593 1.937376-12.060165 3.16761-18.405071a60.058651 60.058651 0 0 1 4.426904-13.968479c3.177296 0.639334 5.695885 1.268981 8.873181 1.937375 7.6042 1.937376 21.524246 6.354593 21.524246 6.354593 3.806944 1.268981 7.6042 1.937376 11.411143 3.16761 0.629647 0 1.268981 0.639334 2.537963 0.639334a11.924548 11.924548 0 0 1 7.594513 10.791183z" fill="#491E0E" p-id="24095"></path></svg>